<svg xmlns="http://www.w3.org/2000/svg" height="24px" viewBox="0 -960 960 960" width="24px" fill="#434343"><path d="m104.23-100.77 71.93-359.61h607.3l71.92 359.61H104.23ZM133.85-800v-60h114.23v60H133.85ZM178-160.77h272V-250H195.92L178-160.77Zm64.69-428.15-42.77-41.77 80.77-80.77 42.77 41.77-80.77 80.77ZM208.08-310H450v-90.38H226L208.08-310Zm143.88-422.35q-52.73-52.73-52.73-128.03h60q0 50.38 35.19 85.57 35.2 35.2 85.58 35.2 50.38 0 85.58-35.2 35.19-35.19 35.19-85.57h60q0 75.3-52.73 128.03-52.73 52.73-128.04 52.73t-128.04-52.73ZM480-860.38Zm-30 344.23v-114.23h60v114.23h-60Zm60 355.38h271.62L763.69-250H510v89.23ZM510-310h241.54l-17.92-90.38H510V-310Zm208.08-278.54-80.54-81.15 41.77-41.77 81.54 80.15-42.77 42.77ZM711.92-800v-60h114.23v60H711.92Z"/></svg>