<svg xmlns="http://www.w3.org/2000/svg" height="24px" viewBox="0 -960 960 960" width="24px" fill="#434343"><path d="M731.54-673.08v-35.38h60v35.38h43.07q15.08 0 25.24 10.16Q870-652.77 870-637.69v352.3q0 15.08-10.15 25.24Q849.69-250 834.61-250H688.46q-15.07 0-25.23-10.15-10.15-10.16-10.15-25.24v-352.3q0-15.08 10.15-25.23 10.16-10.16 25.23-10.16h43.08ZM713.08-310H810h-96.92Zm-585.81 22.73Q90-324.54 90-378.85v-255.76q0-30.7 21.58-52.27 21.57-21.58 52.27-21.58 30.69 0 52.27 21.58 21.57 21.57 21.57 52.27 0 30.69-21.57 52.26-21.58 21.58-52.27 21.58-6.54 0-13.27-1.77-6.73-1.77-12.89-5.31v189q0 34.31 23.43 57.73 23.42 23.43 57.73 23.43 34.3 0 57.73-23.43Q300-344.54 300-378.85v-200.76q0-54.31 37.27-91.58 37.27-37.27 91.58-37.27 54.3 0 91.57 37.08 37.27 37.07 37.27 91.77v255.76q0 30.7-21.57 52.27Q514.54-250 483.85-250q-30.7 0-52.27-21.58Q410-293.15 410-323.85q0-30.69 21.58-52.27 21.57-21.57 52.27-21.57 6.54 0 13.27 1.77 6.73 1.77 12.88 5.31v-189q0-34.31-23.42-57.74-23.43-23.42-57.73-23.42-34.31 0-57.73 23.42-23.43 23.43-23.43 57.74v200.76q0 54.31-37.27 91.58Q273.15-250 218.85-250q-54.31 0-91.58-37.27ZM713.08-310H810v-303.08h-96.92V-310Z"/></svg>