<svg width="60" height="60" viewBox="0 0 60 60" fill="none" xmlns="http://www.w3.org/2000/svg">
<path d="M36 30L27 39V21L36 30ZM54 30.0175C54 26.7142 53.375 23.6042 52.125 20.6875C50.875 17.7708 49.1562 15.2188 46.9688 13.0312C44.7812 10.8438 42.23 9.125 39.315 7.875C36.4 6.625 33.2854 6 29.9713 6C26.6571 6 23.5521 6.625 20.6562 7.875C17.7604 9.125 15.2188 10.8438 13.0312 13.0312C10.8438 15.2188 9.125 17.77 7.875 20.685C6.625 23.6 6 26.7146 6 30.0287C6 33.3429 6.625 36.4479 7.875 39.3438C9.125 42.2396 10.8438 44.7812 13.0312 46.9688C15.2188 49.1562 17.765 50.875 20.67 52.125C23.5754 53.375 26.6796 54 29.9825 54C33.2858 54 36.3958 53.375 39.3125 52.125C42.2292 50.875 44.7812 49.1562 46.9688 46.9688C49.1562 44.7812 50.875 42.235 52.125 39.33C53.375 36.4246 54 33.3204 54 30.0175Z" fill="#3E2576"/>
</svg>
