<svg width="100" height="100" viewBox="0 0 100 100" fill="none" xmlns="http://www.w3.org/2000/svg">
<path d="M100 50C100 77.6142 77.6142 100 50 100C22.3858 100 0 77.6142 0 50C0 22.3858 22.3858 0 50 0C77.6142 0 100 22.3858 100 50ZM15 50C15 69.33 30.67 85 50 85C69.33 85 85 69.33 85 50C85 30.67 69.33 15 50 15C30.67 15 15 30.67 15 50Z" fill="#3E2576" fill-opacity="0.1"/>
<path d="M19.948 80.052C17.0191 82.981 12.2163 83.0086 9.75794 79.6748C3.45812 71.1318 2.72033e-05 60.7442 2.8109e-05 50C2.92268e-05 36.7392 5.26787 24.0215 14.6447 14.6447C24.0215 5.26784 36.7392 -2.16368e-06 50 -3.06893e-06C60.7442 -4.77386e-07 71.1318 3.45809 79.6749 9.75792C83.0086 12.2163 82.981 17.019 80.0521 19.948C77.1231 22.8769 72.4046 22.7932 68.9198 20.5542C63.3192 16.9559 56.7604 15 50 15C40.7174 15 31.8151 18.6875 25.2513 25.2513C18.6875 31.815 15 40.7174 15 50C15 56.7604 16.9559 63.3191 20.5543 68.9197C22.7933 72.4046 22.8769 77.1231 19.948 80.052Z" fill="#3E2576"/>
</svg>
