<svg
  class="power-grid-icon"
  xmlns="http://www.w3.org/2000/svg"
  width="48"
  height="48"
  viewBox="0 0 256 256"
  fill="none"
>
  <path
    d="
      M128 18 L104 50 H152 Z

      M104 50 V138
      M152 50 V138
      M104 98 H152
      M104 138 H152

      M104 138 L82 214
      M152 138 L174 214
      M104 138 L174 214
      M152 138 L82 214

      M78 62 L104 56
      M152 56 L178 62
      M78 62 H178

      M62 122 L104 102
      M152 102 L194 122
      M62 122 H194

      M78 62 V88
      M62 122 V148

      M72 68 H84
      M72 76 H84
      M72 84 H84

      M56 128 H68
      M56 136 H68
      M56 144 H68

      M178 62 V88
      M194 122 V148

      M172 68 H184
      M172 76 H184
      M172 84 H184

      M188 128 H200
      M188 136 H200
      M188 144 H200

      M78 88 C62 98 48 102 30 102
      M62 148 C48 158 36 162 22 162
      M178 88 C194 98 208 102 226 102
      M194 148 C208 158 220 162 234 162

      M72 222 H184
    "
    stroke="currentColor"
    stroke-width="5"
    stroke-linecap="round"
    stroke-linejoin="round"
  />
</svg>